<svg width="101" height="89" viewBox="0 0 101 89" fill="none" xmlns="http://www.w3.org/2000/svg">
<path d="M76.2701 37.6836C76.312 37.7103 78.7902 39.4252 82.6288 39.4275C86.5175 39.4182 89.3512 37.0353 89.3884 37.0109C89.5731 36.8575 89.5987 36.5822 89.4442 36.3974C89.2908 36.2127 89.0154 36.1883 88.8307 36.3417L88.8063 36.3626C88.5251 36.5915 85.9261 38.5642 82.6288 38.5561C80.8419 38.5561 79.3676 38.1541 78.3429 37.7521C77.8305 37.5523 77.4308 37.3525 77.1624 37.2038C77.0277 37.1294 76.9254 37.069 76.8592 37.0272L76.786 36.9795L76.7662 36.9667C76.5676 36.8296 76.2969 36.8796 76.1598 37.0771C76.0227 37.2746 76.0715 37.5465 76.2701 37.6836Z" fill="#CEA561"/>
<path d="M88.4716 37.3559C88.4716 37.3559 89.3395 37.8706 90.4502 37.6394C91.5609 37.4082 86.9322 40.8333 82.1641 39.2137C82.1641 39.2137 85.6124 39.4798 88.4716 37.3559Z" fill="#CEA561"/>
<path d="M59.4404 36.9667L59.4206 36.9795C59.1859 37.1364 56.9239 38.5584 53.5778 38.5561C51.8176 38.5573 50.2596 38.0031 49.1431 37.4442C48.5842 37.1654 48.1381 36.8866 47.8337 36.6786C47.6803 36.574 47.5641 36.4881 47.4863 36.4288L47.4003 36.3626L47.3748 36.3417C47.19 36.1883 46.9147 36.2127 46.7613 36.3974C46.6068 36.5822 46.6324 36.8575 46.8171 37.0109C46.8543 37.0353 49.688 39.4182 53.5778 39.4275C57.4153 39.424 59.8947 37.7103 59.9365 37.6836C60.1352 37.5465 60.184 37.2746 60.0469 37.0771C59.9098 36.8796 59.6391 36.8296 59.4404 36.9667Z" fill="#CEA561"/>
<path d="M47.732 37.3167C47.732 37.3167 46.8641 37.8314 45.7534 37.6002C45.2852 37.5026 45.8324 38.0509 46.9768 38.6005C48.5569 39.3568 51.2756 40.1132 54.0396 39.1745C54.0396 39.1745 50.5901 39.4405 47.732 37.3167Z" fill="#CEA561"/>
<path d="M83.7824 44.4653C79.2513 44.4572 75.5834 42.0894 75.5892 39.179C75.5938 36.2674 79.271 33.9147 83.8033 33.924C88.3333 33.9321 92.0035 36.3 91.9977 39.2103C91.9919 42.1207 88.3136 44.4746 83.7824 44.4653ZM68.4439 71.5627C63.9139 71.5534 60.2425 70.8412 60.2472 67.9296C60.253 65.0181 63.9291 63.5031 68.4602 63.5112C72.9913 63.5205 76.6604 65.0506 76.6546 67.961C76.65 70.8726 72.9751 71.5708 68.4439 71.5627ZM53.2112 44.4061C48.68 44.3979 45.011 42.0313 45.0168 39.1197C45.0226 36.2082 48.7009 33.8566 53.2309 33.8648C57.7632 33.8729 61.4311 36.2407 61.4253 39.1511C61.4195 42.0626 57.7423 44.4153 53.2112 44.4061ZM100.122 44.4967C100.139 35.6342 97.8243 27.448 93.9031 20.8441L87.2365 23.5651L92.1128 18.1034C86.3385 10.0008 77.9373 4.88869 68.5729 4.87127C59.2504 4.85384 50.8619 9.88574 45.0586 17.9024L50.0115 23.4931L43.2159 20.6896C39.2483 27.2865 36.8886 35.4855 36.8712 44.3747C36.8537 53.8866 40.0813 62.6189 44.9273 69.4528L49.7094 67.5021L46.318 71.3001C52.5013 79.0948 60.8119 83.9862 68.4207 84.0001C75.6647 84.014 84.0845 79.0879 90.4258 71.22L87.1959 67.5741L91.7712 69.4621C96.7171 62.6596 100.104 53.9726 100.122 44.4967Z" fill="#151515"/>
<path d="M83.3469 44.0296L83.3481 43.594C81.1592 43.5905 79.1853 43.013 77.7876 42.1103C76.3841 41.2029 75.5871 40.0086 75.5882 38.7491V38.7468H75.2583L75.5882 38.7561V38.7468H75.2583L75.5882 38.7561V38.7433C75.5894 37.4851 76.3876 36.2954 77.7899 35.3926C79.1876 34.4945 81.158 33.9229 83.3435 33.924H83.3655C85.5544 33.9264 87.5284 34.505 88.9261 35.4065C90.3295 36.3139 91.1277 37.5083 91.1254 38.7677L91.1266 38.7944L91.5622 38.7747L91.1266 38.7735C91.1254 40.0318 90.3273 41.2227 88.9249 42.1254C87.5284 43.0224 85.5567 43.5951 83.3737 43.594H83.3481L83.3469 44.0296V44.4653H83.3737C85.7078 44.4642 87.8281 43.8623 89.3954 42.8585C90.9558 41.8593 91.9921 40.4233 91.9979 38.7758L91.9968 38.7538L91.6413 38.7712L91.9979 38.7689L91.9968 38.7538L91.6413 38.7712L91.9979 38.7689V38.7677C91.9956 37.1191 90.9604 35.6784 89.3989 34.6746C87.8304 33.6661 85.7078 33.0573 83.369 33.0527H83.3435C81.007 33.0538 78.8867 33.6557 77.3194 34.6595C75.759 35.6575 74.7227 37.0947 74.718 38.7422L75.1537 38.7433L74.718 38.7294V38.7491C74.7192 40.3989 75.7544 41.8396 77.3159 42.8434C78.8832 43.8519 81.007 44.4595 83.3469 44.4653V44.0296ZM68.0084 71.127L68.0096 70.6913C65.7696 70.6879 63.7538 70.502 62.362 69.9908C61.666 69.7363 61.1327 69.4052 60.7842 69.0055C60.438 68.6024 60.2509 68.1353 60.2474 67.4998V67.4986L59.8873 67.4975L60.2474 67.5149V67.4986L59.8873 67.4975L60.2474 67.5149V67.494C60.2509 66.8608 60.4438 66.324 60.8051 65.8407C61.3465 65.1169 62.3015 64.5243 63.5517 64.1235C64.7995 63.7215 66.3308 63.5112 67.9864 63.5112H68.0212H68.0236C70.2392 63.5147 72.2317 63.897 73.6247 64.5999C74.3207 64.9507 74.8644 65.3771 75.2269 65.8616C75.5894 66.3473 75.7823 66.884 75.7834 67.5184L75.7846 67.5451L76.2191 67.5254L75.7834 67.5242C75.78 68.1574 75.594 68.6233 75.2501 69.023C74.7366 69.6213 73.7955 70.0593 72.5442 70.3242C71.2964 70.5914 69.757 70.6913 68.0898 70.6913H68.0084V71.127V71.5627H68.0898C70.3611 71.5604 72.4257 71.3896 73.9884 70.8203C74.768 70.5345 75.4302 70.143 75.9077 69.5946C76.3864 69.0485 76.6571 68.341 76.656 67.5265L76.6548 67.5056L76.3004 67.5219L76.6548 67.5207V67.5056L76.3004 67.5219L76.6548 67.5207V67.5184C76.6571 66.6993 76.3911 65.9569 75.924 65.3376C75.2234 64.4082 74.1034 63.7471 72.7417 63.3044C71.3778 62.8641 69.7605 62.6445 68.0259 62.6398H68.0271H67.9864C65.6813 62.6422 63.583 63.0221 62.0134 63.8063C61.2303 64.2002 60.5751 64.6986 60.1092 65.3167C59.6433 65.9336 59.376 66.6749 59.376 67.4928L59.8117 67.494L59.3772 67.4731L59.376 67.4998C59.3737 68.3177 59.6456 69.0299 60.1278 69.5783C60.8539 70.4032 61.9809 70.8761 63.3344 71.1677C64.6914 71.457 66.2924 71.5581 68.0073 71.5627L68.0084 71.127ZM52.7757 43.9704V43.5347C50.588 43.5324 48.614 42.9538 47.2163 42.0522C45.8128 41.1448 45.0147 39.9493 45.017 38.691V38.6875H44.687L45.017 38.698V38.6875H44.687L45.017 38.698V38.6852C45.017 37.427 45.8163 36.2361 47.2186 35.3334C48.6163 34.4364 50.5868 33.8636 52.771 33.8648H52.7931H52.7954C54.9832 33.8671 56.9571 34.4457 58.3548 35.3484C59.7583 36.2558 60.5565 37.4502 60.5541 38.7085L60.5553 38.7363L60.9898 38.7154L60.5541 38.7143C60.5541 39.9725 59.7548 41.1634 58.3536 42.0662C56.9571 42.9631 54.9855 43.5359 52.8013 43.5347H52.7757V43.9704L52.7745 44.4061H52.8013C55.1365 44.4049 57.2569 43.8031 58.8242 42.7993C60.3845 41.8013 61.4209 40.3641 61.4255 38.7166V38.6957L61.0688 38.7119L61.4255 38.7108V38.6957L61.0688 38.7119L61.4255 38.7108V38.7085C61.4232 37.0598 60.388 35.6191 58.8265 34.6153C57.2592 33.6069 55.1365 32.9992 52.7966 32.9934H52.7978H52.771C50.4358 32.9946 48.3154 33.5964 46.7481 34.6002C45.1878 35.5982 44.1503 37.0354 44.1456 38.6829L44.5813 38.6841L44.1456 38.6701V38.691C44.1479 40.3397 45.1831 41.7803 46.7446 42.7842C48.3119 43.7926 50.4358 44.4003 52.7745 44.4061L52.7757 43.9704ZM99.6869 44.061L100.123 44.0622V43.9646C100.123 35.0626 97.7908 26.8369 93.8429 20.1866C93.7325 20.0007 93.5025 19.924 93.3039 20.0053L88.3812 22.0141L92.0026 17.9582C92.1385 17.806 92.1502 17.5806 92.0328 17.4144C86.1958 9.22234 77.6668 4.0185 68.1386 3.99992H68.0898C58.6232 3.99992 50.1256 9.11893 44.2699 17.2111C44.1503 17.3761 44.1619 17.6027 44.2978 17.756L48.0006 21.9363L42.9466 19.8508C42.7479 19.7683 42.5179 19.8438 42.4075 20.0285C38.3969 26.6974 36.0174 34.9732 36 43.939V44.0192C36.0012 53.5997 39.2566 62.3877 44.1363 69.2693C44.2537 69.4342 44.4686 69.497 44.6568 69.4203L47.6938 68.1806L45.5572 70.574C45.4166 70.732 45.4097 70.969 45.541 71.1352C51.7881 79.0031 60.1858 83.978 67.9841 84.0001H68.0154C75.4523 83.9897 83.9325 78.9857 90.3296 71.0573C90.4632 70.8924 90.4574 70.6553 90.3168 70.4962L88.3358 68.2596L91.1696 69.4296C91.3554 69.5063 91.5704 69.4459 91.6889 69.2821C96.6813 62.4145 100.103 53.6415 100.123 44.0622L99.6869 44.061H99.2513C99.2338 53.4312 95.8819 62.0322 90.9837 68.7708L91.3357 69.0265L91.5018 68.6233L86.9265 66.7353C86.7395 66.6575 86.5222 66.7202 86.4049 66.8852C86.2875 67.0502 86.2991 67.2756 86.4339 67.4266L89.6638 71.0736L89.9903 70.7843L89.6511 70.5113C83.3841 78.2967 75.055 83.1392 68.0154 83.1287H67.9852C60.5658 83.1218 52.3423 78.3141 46.2241 70.5926L45.8825 70.8645L46.2079 71.1537L49.5992 67.3557C49.734 67.2047 49.7468 66.9805 49.6294 66.8143C49.5133 66.6493 49.2972 66.5854 49.1089 66.6621L44.3269 68.614L44.4918 69.0172L44.8474 68.765C40.0618 62.0183 36.8714 53.3998 36.8714 44.0192V43.9402C36.8888 35.1277 39.2287 27.0042 43.1546 20.4782L42.7805 20.2539L42.6143 20.6559L49.4099 23.4606C49.5969 23.5373 49.813 23.4757 49.9304 23.3107C50.0477 23.1457 50.0361 22.9203 49.9025 22.7681L44.9496 17.1774L44.6231 17.4667L44.9763 17.7223C50.7076 9.80792 58.9485 4.87129 68.0898 4.87129H68.1374C77.3368 4.88872 85.609 9.90784 91.3229 17.921L91.6773 17.6677L91.3519 17.3773L86.4758 22.839C86.341 22.9901 86.3282 23.2143 86.4455 23.3804C86.5617 23.5454 86.7778 23.6093 86.966 23.5326L93.6327 20.8128L93.4676 20.4085L93.0936 20.6315C96.9578 27.1401 99.2513 35.2148 99.2513 43.9646V44.061H99.6869Z" fill="#CEA561"/>
<path d="M44.5911 37.7159C44.6374 37.7455 47.3814 39.6443 51.6318 39.6469C55.9375 39.6366 59.0751 36.9981 59.1163 36.9711C59.3208 36.8012 59.3491 36.4964 59.178 36.2918C59.0082 36.0873 58.7033 36.0603 58.4988 36.2301L58.4718 36.2532C58.1604 36.5067 55.2827 38.691 51.6318 38.682C49.6532 38.682 48.0208 38.2369 46.8861 37.7918C46.3188 37.5705 45.8763 37.3493 45.5791 37.1846C45.4299 37.1023 45.3167 37.0354 45.2433 36.9891L45.1623 36.9363L45.1404 36.9222C44.9204 36.7704 44.6207 36.8257 44.4689 37.0444C44.3171 37.2631 44.3711 37.5641 44.5911 37.7159Z" fill="#CEA561"/>
<path d="M58.1011 37.3533C58.1011 37.3533 59.0621 37.9232 60.2919 37.6672C61.5218 37.4112 56.3966 41.2036 51.1171 39.4103C51.1171 39.4103 54.9352 39.7049 58.1011 37.3533Z" fill="#CEA561"/>
<path d="M25.9556 36.9222L25.9337 36.9363C25.6739 37.11 23.1692 38.6846 19.4643 38.682C17.5153 38.6833 15.7902 38.0697 14.5539 37.4509C13.9351 37.1421 13.4411 36.8334 13.1041 36.6031C12.9343 36.4874 12.8056 36.3922 12.7194 36.3265L12.6242 36.2532L12.5959 36.2301C12.3914 36.0603 12.0865 36.0873 11.9167 36.2918C11.7456 36.4964 11.7739 36.8012 11.9784 36.9711C12.0196 36.9981 15.1573 39.6366 19.4643 39.6469C23.7134 39.643 26.4586 37.7455 26.5049 37.7159C26.7249 37.5641 26.7789 37.2631 26.6271 37.0444C26.4753 36.8257 26.1756 36.7704 25.9556 36.9222Z" fill="#CEA561"/>
<path d="M12.9894 37.3101C12.9894 37.3101 12.0284 37.88 10.7986 37.624C10.2801 37.5159 10.886 38.1231 12.1532 38.7316C13.9027 39.569 16.913 40.4065 19.9735 39.3671C19.9735 39.3671 16.154 39.6617 12.9894 37.3101Z" fill="#CEA561"/>
<path d="M52.9074 45.2252C47.8903 45.2162 43.829 42.5944 43.8355 39.3719C43.8406 36.1481 47.9122 33.543 52.9306 33.5533C57.9464 33.5623 62.0103 36.1841 62.0038 39.4066C61.9974 42.6291 57.9245 45.2355 52.9074 45.2252ZM35.9239 75.2288C30.9081 75.2185 26.8429 74.4299 26.8481 71.2061C26.8545 67.9823 30.9248 66.3047 35.9419 66.3137C40.959 66.324 45.0216 68.0183 45.0152 71.2408C45.01 74.4646 40.941 75.2378 35.9239 75.2288ZM19.0574 45.1596C14.0403 45.1506 9.97772 42.5301 9.98415 39.3063C9.99059 36.0825 14.0634 33.4787 19.0793 33.4877C24.0977 33.4967 28.1589 36.1185 28.1525 39.341C28.1461 42.5648 24.0745 45.1699 19.0574 45.1596ZM70.9999 45.2599C71.0179 35.447 68.4553 26.3827 64.1136 19.0706L56.732 22.0835L62.1312 16.0359C55.7376 7.06429 46.4354 1.40394 36.0667 1.38464C25.7443 1.36535 16.4562 6.93693 10.0304 15.8134L15.5145 22.0037L7.99017 18.8995C3.59699 26.2039 0.984218 35.2823 0.964922 45.1248C0.945625 55.6569 4.51936 65.3258 9.88509 72.8926L15.1801 70.7327L11.425 74.938C18.2714 83.5687 27.4733 88.9847 35.8982 89.0001C43.9191 89.0155 53.2419 83.561 60.2633 74.8493L56.687 70.8124L61.753 72.9029C67.2294 65.3708 70.9793 55.7521 70.9999 45.2599Z" fill="#483A22"/>
<path d="M52.4249 44.7428L52.4262 44.2604C50.0026 44.2565 47.8169 43.6171 46.2693 42.6176C44.7153 41.6129 43.8328 40.2904 43.8341 38.8959V38.8934H43.4688L43.8341 38.9037V38.8934H43.4688L43.8341 38.9037V38.8895C43.8354 37.4963 44.7192 36.179 46.2719 35.1794C47.8195 34.185 50.0013 33.5521 52.4211 33.5533H52.4455C54.8692 33.5559 57.0548 34.1966 58.6024 35.1948C60.1564 36.1996 61.0402 37.522 61.0377 38.9165L61.0389 38.9461L61.5213 38.9242L61.0389 38.9229C61.0376 40.3162 60.1539 41.6348 58.6012 42.6343C57.0549 43.6275 54.8717 44.2617 52.4545 44.2604H52.4262L52.4249 44.7428V45.2252H52.4545C55.039 45.2239 57.3867 44.5575 59.1221 43.446C60.8498 42.3397 61.9973 40.7497 62.0037 38.9255L62.0025 38.9011L61.6088 38.9204L62.0037 38.9178L62.0025 38.9011L61.6088 38.9204L62.0037 38.9178V38.9165C62.0012 37.091 60.8549 35.4959 59.126 34.3844C57.3893 33.2677 55.039 32.5937 52.4494 32.5885H52.4211C49.834 32.5898 47.4863 33.2562 45.7509 34.3677C44.0232 35.4727 42.8757 37.064 42.8706 38.8882L43.353 38.8895L42.8706 38.8741V38.8959C42.8718 40.7227 44.0181 42.3179 45.747 43.4293C47.4824 44.546 49.834 45.2188 52.4249 45.2252V44.7428ZM35.4414 74.7464L35.4427 74.264C32.9624 74.2601 30.7305 74.0543 29.1893 73.4882C28.4187 73.2065 27.8282 72.8399 27.4423 72.3973C27.059 71.9509 26.8518 71.4338 26.848 70.7301V70.7288L26.4492 70.7275L26.848 70.7469V70.7288L26.4492 70.7275L26.848 70.7469V70.7237C26.8518 70.0226 27.0654 69.4282 27.4655 68.8931C28.0649 68.0916 29.1224 67.4355 30.5066 66.9917C31.8882 66.5466 33.5838 66.3138 35.4169 66.3138H35.4555H35.4581C37.9114 66.3176 40.1176 66.7409 41.66 67.5192C42.4306 67.9077 43.0327 68.3798 43.434 68.9163C43.8354 69.454 44.049 70.0483 44.0502 70.7507L44.0515 70.7803L44.5327 70.7584L44.0502 70.7571C44.0464 71.4582 43.8405 71.9741 43.4598 72.4167C42.8911 73.0792 41.8491 73.5642 40.4636 73.8575C39.082 74.1533 37.3775 74.264 35.5314 74.264H35.4414V74.7464V75.2288H35.5314C38.0464 75.2262 40.3324 75.0371 42.0627 74.4068C42.9259 74.0903 43.6591 73.6568 44.1879 73.0496C44.7179 72.445 45.0176 71.6615 45.0164 70.7597L45.0151 70.7366L44.6227 70.7546L45.0151 70.7533V70.7366L44.6227 70.7546L45.0151 70.7533V70.7507C45.0176 69.8438 44.723 69.0218 44.2059 68.3361C43.4302 67.3069 42.19 66.5749 40.6823 66.0848C39.172 65.5973 37.3813 65.3541 35.4607 65.3489H35.462H35.4169C32.8646 65.3515 30.5413 65.7722 28.8034 66.6405C27.9363 67.0766 27.2107 67.6285 26.6949 68.3129C26.179 68.996 25.8831 69.8167 25.8831 70.7224L26.3655 70.7237L25.8844 70.7005L25.8831 70.7301C25.8806 71.6358 26.1816 72.4244 26.7155 73.0316C27.5195 73.945 28.7673 74.4685 30.266 74.7914C31.7686 75.1117 33.5413 75.2236 35.4401 75.2288L35.4414 74.7464ZM18.5749 44.6772V44.1948C16.1525 44.1922 13.9669 43.5515 12.4193 42.5533C10.8653 41.5486 9.98149 40.2248 9.98406 38.8316V38.8277H9.6187L9.98406 38.8393V38.8277H9.6187L9.98406 38.8393V38.8252C9.98406 37.432 10.8691 36.1134 12.4219 35.1138C13.9694 34.1207 16.1512 33.4865 18.5697 33.4877H18.5942H18.5968C21.0191 33.4903 23.2048 34.131 24.7524 35.1305C26.3064 36.1352 27.1902 37.4577 27.1876 38.8509L27.1889 38.8818L27.67 38.8586L27.1876 38.8573C27.1876 40.2505 26.3025 41.5692 24.7511 42.5687C23.2048 43.5618 21.0217 44.196 18.6032 44.1948H18.5749V44.6772L18.5736 45.1596H18.6032C21.1889 45.1583 23.5367 44.4919 25.2721 43.3805C26.9998 42.2754 28.1473 40.6841 28.1524 38.8599V38.8368L27.7575 38.8548L28.1524 38.8535V38.8368L27.7575 38.8548L28.1524 38.8535V38.8509C28.1499 37.0254 27.0036 35.4303 25.2746 34.3188C23.5392 33.2021 21.1889 32.5293 18.598 32.5229H18.5993H18.5697C15.984 32.5242 13.6362 33.1906 11.9008 34.3021C10.1732 35.4071 9.02438 36.9984 9.01923 38.8226L9.50165 38.8239L9.01923 38.8085V38.8316C9.02181 40.6571 10.168 42.2522 11.897 43.3637C13.6324 44.4804 15.984 45.1532 18.5736 45.1596L18.5749 44.6772ZM70.5174 44.7775L70.9998 44.7788V44.6707C70.9998 34.814 68.4179 25.7061 64.0466 18.3425C63.9244 18.1367 63.6697 18.0518 63.4497 18.1418L57.9991 20.3661L62.0089 15.8751C62.1594 15.7066 62.1723 15.457 62.0424 15.273C55.5793 6.20237 46.1356 0.440414 35.5855 0.419838H35.5314C25.0495 0.419838 15.6405 6.08788 9.15689 15.0479C9.02439 15.2306 9.03725 15.4815 9.18776 15.6513L13.2876 20.2799L7.69162 17.9707C7.47164 17.8794 7.21694 17.963 7.09473 18.1675C2.65394 25.5517 0.0192966 34.715 0 44.6424V44.7312C0.00128644 55.3392 3.60589 65.0698 9.00893 72.6894C9.13886 72.872 9.37685 72.9415 9.58525 72.8566L12.948 71.484L10.5822 74.134C10.4266 74.309 10.4189 74.5714 10.5642 74.7554C17.4814 83.4672 26.7798 88.9757 35.4144 89.0001H35.4491C43.6836 88.9885 53.0733 83.4479 60.1564 74.6692C60.3044 74.4865 60.298 74.2241 60.1423 74.0479L57.9489 71.5715L61.0865 72.8669C61.2924 72.9518 61.5303 72.8849 61.6615 72.7035C67.1894 65.0994 70.978 55.3855 70.9998 44.7788L70.5174 44.7775H70.035C70.0157 55.1526 66.3043 64.6761 60.8807 72.1375L61.2705 72.4205L61.4544 71.9741L56.3885 69.8836C56.1813 69.7974 55.9407 69.8669 55.8108 70.0496C55.6809 70.2323 55.6938 70.4819 55.843 70.6491L59.4193 74.6872L59.7808 74.3669L59.4052 74.0646C52.4661 82.685 43.2436 88.0469 35.4491 88.0353H35.4157C27.2005 88.0276 18.095 82.7043 11.3207 74.1546L10.9425 74.4556L11.3027 74.776L15.0578 70.5706C15.207 70.4034 15.2211 70.1551 15.0912 69.9711C14.9626 69.7885 14.7233 69.7177 14.5149 69.8026L9.21992 71.9638L9.40259 72.4102L9.79625 72.1311C4.49741 64.6607 0.964829 55.1179 0.964829 44.7312V44.6437C0.984125 34.8861 3.57502 25.8913 7.9219 18.6654L7.50767 18.4171L7.32372 18.8622L14.8481 21.9677C15.0552 22.0526 15.2945 21.9844 15.4244 21.8017C15.5543 21.619 15.5415 21.3695 15.3935 21.201L9.90944 15.0106L9.54794 15.331L9.93902 15.614C16.285 6.85075 25.4097 1.38467 35.5314 1.38467H35.5842C45.7702 1.40396 54.9296 6.96138 61.2563 15.8339L61.6487 15.5535L61.2885 15.2319L55.8893 21.2794C55.7401 21.4467 55.7259 21.695 55.8559 21.8789C55.9845 22.0616 56.2238 22.1324 56.4322 22.0474L63.8138 19.0359L63.6311 18.5882L63.2169 18.8352C67.4956 26.0418 70.035 34.9826 70.035 44.6707V44.7775H70.5174Z" fill="#CEA561"/>
</svg>
